<svg width="18" height="15" viewBox="0 0 18 15" fill="none" xmlns="http://www.w3.org/2000/svg">
<path d="M5 5.49979C4.30964 5.49979 3.75 6.05944 3.75 6.74979C3.75 7.44015 4.30964 7.99979 5 7.99979C5.69036 7.99979 6.25 7.44015 6.25 6.74979C6.25 6.05944 5.69036 5.49979 5 5.49979Z" fill="#4B9C4A"/>
<path d="M9 5.49979C8.30964 5.49979 7.75 6.05944 7.75 6.74979C7.75 7.44015 8.30964 7.99979 9 7.99979C9.69036 7.99979 10.25 7.44015 10.25 6.74979C10.25 6.05944 9.69036 5.49979 9 5.49979Z" fill="#4B9C4A"/>
<path d="M11.75 6.74979C11.75 6.05944 12.3096 5.49979 13 5.49979C13.6904 5.49979 14.25 6.05944 14.25 6.74979C14.25 7.44015 13.6904 7.99979 13 7.99979C12.3096 7.99979 11.75 7.44015 11.75 6.74979Z" fill="#4B9C4A"/>
<path fill-rule="evenodd" clip-rule="evenodd" d="M13.1007 0.592585C10.4065 0.362825 7.69826 0.349492 5.00194 0.552712L4.80871 0.567276C2.23741 0.761074 0.25 2.9039 0.25 5.4825V13.9998C0.25 14.2637 0.388666 14.5081 0.615148 14.6435C0.841631 14.7789 1.12261 14.7854 1.35504 14.6604L5.26583 12.5587C5.44774 12.461 5.65104 12.4098 5.85756 12.4098H14.834C15.9661 12.4098 16.9362 11.6004 17.1392 10.4867C17.5505 8.22942 17.5829 5.91945 17.2353 3.65154L17.1329 2.98322C16.9464 1.76647 15.951 0.835653 14.7245 0.731057L13.1007 0.592585ZM5.11468 2.04847C7.73103 1.85128 10.359 1.86421 12.9733 2.08716L14.597 2.22563C15.1334 2.27137 15.5686 2.67841 15.6502 3.21049L15.7526 3.87881C16.075 5.9821 16.0449 8.12439 15.6635 10.2178C15.5904 10.6185 15.2413 10.9098 14.834 10.9098H5.85756C5.40322 10.9098 4.95596 11.0224 4.55575 11.2374L1.75 12.7453V5.4825C1.75 3.6886 3.13262 2.19786 4.92144 2.06303L5.11468 2.04847Z" fill="#4B9C4A"/>
</svg>
