<svg width="18" height="18" viewBox="0 0 18 18" fill="none" xmlns="http://www.w3.org/2000/svg">
<path fill-rule="evenodd" clip-rule="evenodd" d="M9 2.125C6.29885 2.125 4.20333 3.81669 3.84569 5.875H5.66667C6.01184 5.875 6.29167 6.15482 6.29167 6.5V12.3333C6.29167 12.6785 6.01184 12.9583 5.66667 12.9583H3.16667C1.90101 12.9583 0.875 11.9323 0.875 10.6667V8.16667C0.875 7.10697 1.59426 6.21527 2.57122 5.95312C2.88911 3.03299 5.72816 0.875 9 0.875C12.2718 0.875 15.1109 3.03299 15.4288 5.95312C16.4057 6.21527 17.125 7.10697 17.125 8.16667V10.6667C17.125 11.7293 16.4017 12.6231 15.4206 12.8824C15.1533 14.8087 13.4998 16.2917 11.5 16.2917H10.5455C10.2983 16.9025 9.69945 17.3333 9 17.3333C8.07953 17.3333 7.33333 16.5871 7.33333 15.6667C7.33333 14.7462 8.07953 14 9 14C9.69945 14 10.2983 14.4309 10.5455 15.0417H11.5C12.7807 15.0417 13.8537 14.1528 14.1359 12.9583H12.3333C11.9882 12.9583 11.7083 12.6785 11.7083 12.3333V6.5C11.7083 6.15482 11.9882 5.875 12.3333 5.875H14.1543C13.7967 3.81669 11.7011 2.125 9 2.125ZM3.16667 7.125C2.59137 7.125 2.125 7.59137 2.125 8.16667V10.6667C2.125 11.242 2.59137 11.7083 3.16667 11.7083H5.04167V7.125H3.16667ZM15.875 8.16667C15.875 7.59137 15.4086 7.125 14.8333 7.125H12.9583V11.7083H14.8333C15.4086 11.7083 15.875 11.242 15.875 10.6667V8.16667Z" fill="black"/>
</svg>
