<svg width="18" height="16" viewBox="0 0 18 16" fill="none" xmlns="http://www.w3.org/2000/svg">
<path d="M9.72071 0.496638C9.39956 -0.0568209 8.6003 -0.0568231 8.27915 0.496638L6.01744 4.39439C5.85879 4.6678 5.58459 4.85437 5.27203 4.90158L1.03344 5.54177C0.321537 5.64929 0.0718206 6.54813 0.626242 7.00747L3.78382 9.62349C4.0761 9.86564 4.21354 10.2476 4.14253 10.6205L3.31656 14.9581C3.18599 15.6438 3.90581 16.1765 4.52344 15.8513L8.51461 13.7498C8.81839 13.5899 9.18147 13.5899 9.48524 13.7498L13.4764 15.8513C14.094 16.1765 14.8139 15.6438 14.6833 14.9581L13.8573 10.6205C13.7863 10.2476 13.9238 9.86564 14.216 9.62349L17.3736 7.00747C17.928 6.54814 17.6783 5.64929 16.9664 5.54177L12.7278 4.90158C12.4153 4.85437 12.1411 4.6678 11.9824 4.3944L9.72071 0.496638Z" fill="#FFD600"/>
</svg>
